<svg width="173" height="33" viewBox="0 0 173 33" fill="none" xmlns="http://www.w3.org/2000/svg">
<path d="M4.19039 32.6066L6.5922 25.7282H16.8127L19.2017 32.6066H23.3921L13.9765 6.61609H9.4156L0 32.6066H4.19039ZM7.742 22.4287L11.6002 11.337H11.8046L15.6629 22.4287H7.742Z" fill="black"/>
<path d="M26.8638 32.6066H30.6837V20.7027C30.6837 18.1519 32.664 16.3118 35.3724 16.3118C36.1645 16.3118 37.0587 16.4514 37.3654 16.5402V12.9107C36.9821 12.8599 36.2283 12.8218 35.7429 12.8218C33.4433 12.8218 31.4758 14.1163 30.7604 16.2102H30.556V13.1137H26.8638V32.6066Z" fill="black"/>
<path d="M48.2342 33C53.766 33 57.3815 28.9771 57.3815 22.949C57.3815 16.8828 53.766 12.8599 48.2342 12.8599C42.7024 12.8599 39.0869 16.8828 39.0869 22.949C39.0869 28.9771 42.7024 33 48.2342 33ZM48.247 29.8146C44.6315 29.8146 42.9451 26.68 42.9451 22.9363C42.9451 19.2052 44.6315 16.0326 48.247 16.0326C51.8369 16.0326 53.5233 19.2052 53.5233 22.9363C53.5233 26.68 51.8369 29.8146 48.247 29.8146Z" fill="black"/>
<path d="M74.076 24.5226C74.0887 27.8349 71.6103 29.4085 69.464 29.4085C67.1005 29.4085 65.4652 27.708 65.4652 25.0556V13.1137H61.6453V25.5125C61.6453 30.3477 64.3154 32.8604 68.0842 32.8604C71.0354 32.8604 73.0412 31.3121 73.9482 29.2309H74.1526V32.6066H77.9086V13.1137H74.076V24.5226Z" fill="black"/>
<path d="M86.8611 21.0327C86.8611 17.9235 88.7775 16.1468 91.4348 16.1468C94.0282 16.1468 95.5996 17.8346 95.5996 20.6647V32.6066H99.4195V20.2078C99.4195 15.3853 96.7494 12.8599 92.7379 12.8599C89.7867 12.8599 87.8576 14.2178 86.9506 16.2864H86.7078V13.1137H83.0412V32.6066H86.8611V21.0327Z" fill="black"/>
<path d="M111.888 32.9873C115.466 32.9873 116.871 30.8172 117.561 29.5735H117.88V32.6066H121.611V6.61609H117.791V16.2737H117.561C116.871 15.0681 115.568 12.8599 111.914 12.8599C107.174 12.8599 103.687 16.5783 103.687 22.8982C103.687 29.2055 107.123 32.9873 111.888 32.9873ZM112.732 29.7512C109.321 29.7512 107.545 26.7689 107.545 22.8602C107.545 18.9895 109.282 16.0833 112.732 16.0833C116.066 16.0833 117.855 18.7864 117.855 22.8602C117.855 26.9592 116.028 29.7512 112.732 29.7512Z" fill="black"/>
<path d="M126.6 1.0491H129.343V8.78195H130.399V1.0491H133.141V0.118446H126.6V1.0491Z" fill="black"/>
<path d="M135.64 4.87322C135.64 3.73952 136.368 3.09652 137.36 3.09652C138.306 3.09652 138.876 3.68876 138.876 4.72093V8.78195H139.881V4.65325C139.881 2.98231 138.987 2.19972 137.65 2.19972C136.619 2.19972 136.032 2.62697 135.725 3.29957H135.64V0.118446H134.635V8.78195H135.64V4.87322Z" fill="black"/>
<path d="M144.463 8.91731C145.791 8.91731 146.762 8.2574 147.069 7.27599L146.098 7.00525C145.842 7.68209 145.25 8.0205 144.463 8.0205C143.283 8.0205 142.47 7.2633 142.423 5.87155H147.171V5.44853C147.171 3.02884 145.723 2.19972 144.36 2.19972C142.589 2.19972 141.413 3.58723 141.413 5.5839C141.413 7.58056 142.572 8.91731 144.463 8.91731ZM142.423 5.00859C142.491 3.99756 143.211 3.09652 144.36 3.09652C145.451 3.09652 146.149 3.90873 146.149 5.00859H142.423Z" fill="black"/>
<path d="M157.932 0.118446V5.77003C157.932 7.03909 157.055 7.95282 155.599 7.95282C154.142 7.95282 153.265 7.03909 153.265 5.77003V0.118446H152.209V5.85463C152.209 7.63132 153.546 8.93423 155.599 8.93423C157.651 8.93423 158.988 7.63132 158.988 5.85463V0.118446H157.932Z" fill="black"/>
<path d="M161.284 8.84963C161.705 8.84963 162.05 8.50698 162.05 8.08819C162.05 7.6694 161.705 7.32675 161.284 7.32675C160.862 7.32675 160.517 7.6694 160.517 8.08819C160.517 8.50698 160.862 8.84963 161.284 8.84963Z" fill="black"/>
<path d="M168.76 2.28432H169.782C169.735 0.977182 168.521 0 166.835 0C165.165 0 163.854 0.964492 163.854 2.41969C163.854 3.58723 164.705 4.28099 166.068 4.67017L167.141 4.97474C168.061 5.22856 168.879 5.55005 168.879 6.41302C168.879 7.36059 167.959 7.98666 166.75 7.98666C165.71 7.98666 164.791 7.5298 164.705 6.54839H163.615C163.717 7.96974 164.876 8.93423 166.75 8.93423C168.76 8.93423 169.901 7.83438 169.901 6.42994C169.901 4.80553 168.351 4.28099 167.448 4.04409L166.562 3.8072C165.915 3.63799 164.876 3.29957 164.876 2.36893C164.876 1.5398 165.642 0.93065 166.801 0.93065C167.857 0.93065 168.657 1.42982 168.76 2.28432Z" fill="black"/>
<path d="M172.233 8.84963C172.655 8.84963 173 8.50698 173 8.08819C173 7.6694 172.655 7.32675 172.233 7.32675C171.812 7.32675 171.467 7.6694 171.467 8.08819C171.467 8.50698 171.812 8.84963 172.233 8.84963Z" fill="black"/>
</svg>
