<svg width="21" height="19" fill="none" xmlns="http://www.w3.org/2000/svg"><path d="M19.376 9.786c2.165-2.243 2.165-5.884 0-8.104a5.415 5.415 0 0 0-7.845 0l-1.05 1.11-1.05-1.088C7.266-.56 3.751-.56 1.608 1.682.558 2.77 0 4.213 0 5.745 0 7.277.579 8.72 1.608 9.808L10.48 19l8.895-9.214ZM1.372 5.745c0-1.155.428-2.22 1.222-3.02.814-.843 1.864-1.265 2.915-1.265 1.05 0 2.1.422 2.915 1.265l2.057 2.11 2.058-2.132a4.026 4.026 0 0 1 5.83 0 4.327 4.327 0 0 1 1.222 3.02c0 1.154-.429 2.22-1.222 3.02l-7.888 8.192-7.887-8.17c-.772-.822-1.222-1.888-1.222-3.02Z" fill="#000"/></svg>